<svg xmlns="http://www.w3.org/2000/svg" viewBox="0 0 800 450">
  <defs>
    <style>
      .bg { fill: #0f172a; }
      .text-title { fill: #f8fafc; font-family: monospace; font-size: 18px; font-weight: bold; }
      .text-sub { fill: #94a3b8; font-family: monospace; font-size: 14px; }
      .text-code { fill: #cbd5e1; font-family: monospace; font-size: 12px; }
      .box { fill: #1e293b; stroke: #334155; stroke-width: 2; rx: 6; }
      .box-highlight { fill: #1e293b; stroke: #38bdf8; stroke-width: 2; rx: 6; }
      .box-success { fill: #1e293b; stroke: #4ade80; stroke-width: 2; rx: 6; }
      .line { stroke: #475569; stroke-width: 2; stroke-dasharray: 4; }
      .arrow { stroke: #475569; stroke-width: 2; fill: none; }
      .arrow-solid { stroke: #38bdf8; stroke-width: 2; fill: none; }
    </style>
    <marker id="arrowhead" markerWidth="10" markerHeight="7" refX="9" refY="3.5" orient="auto">
      <polygon points="0 0, 10 3.5, 0 7" fill="#475569" />
    </marker>
    <marker id="arrowhead-solid" markerWidth="10" markerHeight="7" refX="9" refY="3.5" orient="auto">
      <polygon points="0 0, 10 3.5, 0 7" fill="#38bdf8" />
    </marker>
  </defs>

  <rect width="800" height="450" class="bg" />
  
  <text x="40" y="40" class="text-title">Ansible Apache Reverse Proxy Architecture</text>
  <text x="40" y="60" class="text-sub">Standardized deployment with dynamic configuration snippets</text>

  <!-- Ansible Control Node -->
  <rect x="40" y="100" width="220" height="280" class="box" />
  <text x="60" y="130" class="text-title">Ansible Control</text>
  
  <rect x="60" y="150" width="180" height="60" class="box-highlight" />
  <text x="70" y="170" class="text-code">Inventory Variables</text>
  <text x="70" y="190" class="text-code">server_name: app.int</text>
  
  <rect x="60" y="230" width="180" height="60" class="box-highlight" />
  <text x="70" y="250" class="text-code">Role: app_apache</text>
  <text x="70" y="270" class="text-code">Handles SSL/Firewall</text>
  
  <rect x="60" y="310" width="180" height="50" class="box-highlight" />
  <text x="70" y="330" class="text-code">Proxy Snippet</text>
  <text x="70" y="350" class="text-code">ProxyPass / http:...</text>

  <!-- Connection line -->
  <path d="M 260 240 L 340 240" class="arrow-solid" marker-end="url(#arrowhead-solid)" />
  <text x="270" y="230" class="text-code">Deploy Config</text>

  <!-- Target Server -->
  <rect x="350" y="100" width="380" height="280" class="box" />
  <text x="370" y="130" class="text-title">Target Server (Web/Proxy)</text>

  <rect x="370" y="160" width="160" height="180" class="box-success" />
  <text x="390" y="190" class="text-title">Apache HTTPD</text>
  <text x="390" y="220" class="text-code">VirtualHost (443)</text>
  <text x="390" y="240" class="text-code">SSL Termination</text>
  <text x="390" y="260" class="text-code">ModProxy</text>
  <text x="390" y="290" class="text-code">Include snippet</text>

  <!-- Traffic -->
  <path d="M 530 250 L 590 250" class="arrow-solid" marker-end="url(#arrowhead-solid)" />
  <text x="540" y="240" class="text-code">Proxy</text>

  <rect x="600" y="200" width="110" height="80" class="box" />
  <text x="615" y="230" class="text-title">App Service</text>
  <text x="615" y="250" class="text-code">(e.g. Tomcat)</text>
  <text x="615" y="270" class="text-code">Port 8080</text>
  
  <!-- Network / Client -->
  <path d="M 370 200 L 290 200" class="arrow" marker-end="url(#arrowhead)" />
  <text x="310" y="190" class="text-code">HTTPS In</text>
</svg>