<svg xmlns="http://www.w3.org/2000/svg" viewBox="0 0 64 64" role="img" aria-label="SB">
  <defs>
    <linearGradient id="g" x1="0" y1="0" x2="1" y2="1">
      <stop offset="0%" stop-color="#67d6ff"/>
      <stop offset="100%" stop-color="#f3b56a"/>
    </linearGradient>
  </defs>
  <rect width="64" height="64" rx="14" fill="#07101c"/>
  <rect x="5" y="5" width="54" height="54" rx="11" fill="none" stroke="url(#g)" stroke-width="2" opacity="0.8"/>
  <path d="M18 21h16c7 0 11 4 11 10 0 4-2 7-6 8l7 10h-8l-6-9h-6v9h-8V21Zm8 6v7h7c3 0 4-1 4-3s-1-4-4-4h-7Z" fill="#e5edf8"/>
  <path d="M17 52c8 0 13-2 17-5 4-2 7-3 13-3" stroke="url(#g)" stroke-width="2.5" fill="none" stroke-linecap="round" opacity="0.85"/>
</svg>
