<svg viewBox="0 0 1200 560" xmlns="http://www.w3.org/2000/svg">
  <defs>
    <linearGradient id="bgB" x1="0%" y1="0%" x2="100%" y2="100%">
      <stop offset="0%" stop-color="#0c1020"/>
      <stop offset="100%" stop-color="#181f33"/>
    </linearGradient>
    <filter id="pinkGlow" x="-20%" y="-20%" width="140%" height="140%">
      <feGaussianBlur stdDeviation="5" result="blur"/>
      <feComposite in="SourceGraphic" in2="blur" operator="over"/>
    </filter>
    <marker id="arrowB" markerWidth="10" markerHeight="10" refX="8" refY="5" orient="auto">
      <path d="M0 0 L10 5 L0 10 z" fill="#8ec5ff"/>
    </marker>
  </defs>
  <rect width="1200" height="560" rx="24" fill="url(#bgB)"/>
  <text x="600" y="44" fill="#fff" font-family="Arial" font-size="28" font-weight="bold" text-anchor="middle">Formula 1 AWS Serving and Insight Layers</text>
  <text x="600" y="72" fill="#a7bddc" font-family="Arial" font-size="14" text-anchor="middle">Once the stream is safe, services branch into fast transforms, live state, simulation, and language generation.</text>

  <g transform="translate(64,164)">
    <rect width="190" height="170" rx="18" fill="#1c2439" stroke="#ffb347" stroke-width="2"/>
    <text x="95" y="36" fill="#fff" font-family="Arial" font-size="22" font-weight="bold" text-anchor="middle">Kinesis / SQS</text>
    <text x="95" y="62" fill="#cbdaf3" font-family="Arial" font-size="12" text-anchor="middle">stable input for consumers</text>
    <rect x="26" y="92" width="138" height="16" rx="8" fill="#11192a"/>
    <rect x="26" y="92" width="102" height="16" rx="8" fill="#ff8b1f">
      <animate attributeName="width" values="36;132;88;122;102" dur="2.4s" repeatCount="indefinite"/>
    </rect>
    <rect x="26" y="126" width="138" height="16" rx="8" fill="#11192a"/>
    <rect x="26" y="126" width="84" height="16" rx="8" fill="#65d6ff">
      <animate attributeName="width" values="28;130;70;118;84" dur="2.1s" repeatCount="indefinite"/>
    </rect>
  </g>

  <g transform="translate(326,116)">
    <rect width="190" height="106" rx="18" fill="#1c2439" stroke="#72ffd8" stroke-width="2"/>
    <text x="95" y="34" fill="#fff" font-family="Arial" font-size="22" font-weight="bold" text-anchor="middle">Lambda</text>
    <text x="95" y="58" fill="#72ffd8" font-family="Arial" font-size="12" text-anchor="middle">Fast metrics and anomaly rules</text>
    <rect x="26" y="76" width="138" height="8" rx="4" fill="#72ffd8" opacity="0.25"/>
    <rect x="26" y="76" width="54" height="8" rx="4" fill="#72ffd8">
      <animate attributeName="x" values="26;110;26" dur="1.4s" repeatCount="indefinite"/>
    </rect>
  </g>

  <g transform="translate(326,248)">
    <rect width="190" height="106" rx="18" fill="#1c2439" stroke="#72ffd8" stroke-width="2"/>
    <text x="95" y="34" fill="#fff" font-family="Arial" font-size="22" font-weight="bold" text-anchor="middle">ECS Fargate</text>
    <text x="95" y="58" fill="#72ffd8" font-family="Arial" font-size="12" text-anchor="middle">Strategy and broadcast services</text>
    <rect x="26" y="76" width="138" height="8" rx="4" fill="#72ffd8" opacity="0.25"/>
    <rect x="56" y="76" width="50" height="8" rx="4" fill="#72ffd8">
      <animate attributeName="x" values="26;108;26" dur="1.8s" repeatCount="indefinite"/>
    </rect>
  </g>

  <g transform="translate(586,116)">
    <rect width="210" height="106" rx="18" fill="#1c2439" stroke="#4fd1ff" stroke-width="2"/>
    <text x="105" y="34" fill="#fff" font-family="Arial" font-size="22" font-weight="bold" text-anchor="middle">DynamoDB</text>
    <text x="105" y="58" fill="#4fd1ff" font-family="Arial" font-size="12" text-anchor="middle">Live race-state cache</text>
    <text x="105" y="80" fill="#cad7ef" font-family="Courier New" font-size="10" text-anchor="middle">car + lap + sector -> current state</text>
  </g>

  <g transform="translate(586,248)">
    <rect width="210" height="106" rx="18" fill="#1c2439" stroke="#4fd1ff" stroke-width="2"/>
    <text x="105" y="34" fill="#fff" font-family="Arial" font-size="22" font-weight="bold" text-anchor="middle">SageMaker</text>
    <text x="105" y="58" fill="#4fd1ff" font-family="Arial" font-size="12" text-anchor="middle">Tire, stint, and pace simulation</text>
    <rect x="28" y="76" width="154" height="10" rx="5" fill="#11192a"/>
    <rect x="28" y="76" width="62" height="10" rx="5" fill="#4fd1ff">
      <animate attributeName="width" values="34;148;82;132;62" dur="2.2s" repeatCount="indefinite"/>
    </rect>
  </g>

  <g transform="translate(876,150)">
    <rect width="228" height="170" rx="20" fill="#1c2439" stroke="#ff4fd8" stroke-width="2" filter="url(#pinkGlow)">
      <animate attributeName="stroke-opacity" values="0.45;1;0.45" dur="2.3s" repeatCount="indefinite"/>
    </rect>
    <text x="114" y="36" fill="#fff" font-family="Arial" font-size="22" font-weight="bold" text-anchor="middle">Bedrock</text>
    <text x="114" y="62" fill="#ffb9f5" font-family="Arial" font-size="12" text-anchor="middle">Telemetry, radio, and history synthesis</text>
    <rect x="38" y="92" width="152" height="22" rx="11" fill="#2c1433" stroke="#ff4fd8"/>
    <text x="114" y="107" fill="#ffd8fa" font-family="Courier New" font-size="10" text-anchor="middle">telemetry context</text>
    <rect x="38" y="124" width="152" height="22" rx="11" fill="#2c1433" stroke="#ff4fd8"/>
    <text x="114" y="139" fill="#ffd8fa" font-family="Courier New" font-size="10" text-anchor="middle">radio transcript</text>
    <rect x="38" y="156" width="152" height="22" rx="11" fill="#2c1433" stroke="#ff4fd8"/>
    <text x="114" y="171" fill="#ffd8fa" font-family="Courier New" font-size="10" text-anchor="middle">historical retrieval</text>
  </g>

  <path d="M254 248 L326 168" stroke="#8ec5ff" stroke-width="4" marker-end="url(#arrowB)" fill="none"/>
  <path d="M254 248 L326 300" stroke="#8ec5ff" stroke-width="4" marker-end="url(#arrowB)" fill="none"/>
  <path d="M516 168 L586 168" stroke="#8ec5ff" stroke-width="4" marker-end="url(#arrowB)" fill="none"/>
  <path d="M516 300 L586 300" stroke="#8ec5ff" stroke-width="4" marker-end="url(#arrowB)" fill="none"/>
  <path d="M796 168 L876 202" stroke="#8ec5ff" stroke-width="4" marker-end="url(#arrowB)" fill="none"/>
  <path d="M796 300 L876 266" stroke="#8ec5ff" stroke-width="4" marker-end="url(#arrowB)" fill="none"/>

  <g transform="translate(882,372)">
    <rect width="216" height="84" rx="18" fill="#1a1830" stroke="#ff4fd8" stroke-width="2"/>
    <text x="108" y="30" fill="#fff" font-family="Arial" font-size="20" font-weight="bold" text-anchor="middle">Human Output</text>
    <text x="108" y="54" fill="#ffd8fa" font-family="Arial" font-size="12" text-anchor="middle">TV graphics and pit-wall prompts</text>
  </g>
  <path d="M990 320 L990 372" stroke="#ff4fd8" stroke-width="4" marker-end="url(#arrowB)" fill="none"/>
</svg>
